<svg xmlns="http://www.w3.org/2000/svg" version="1.1" xmlns:xlink="http://www.w3.org/1999/xlink" xmlns:svgjs="http://svgjs.dev/svgjs" width="800" height="400" preserveAspectRatio="none" viewBox="0 0 800 400"><g mask="url(&quot;#SvgjsMask1005&quot;)" fill="none"><path d="M119.63 207.07L148.89 207.07L148.89 236.33L119.63 236.33z" fill="rgba(192, 0, 255, 1)"></path><path d="M163.63 296.96 a7.38 7.38 0 1 0 14.76 0 a7.38 7.38 0 1 0 -14.76 0z" fill="rgba(12, 12, 12, 1)"></path><path d="M655.94 133.61L677.95 133.61L677.95 151.07L655.94 151.07z" stroke="rgba(207, 224, 255, 1)"></path><path d="M301.92 49.53a35.07 35.07 0 1 0-69.81-6.78z" fill="rgba(192, 0, 255, 1)"></path><path d="M572.05 364.32a11.46 11.46 0 1 0 22.4 4.84z" stroke="rgba(207, 224, 255, 1)"></path><path d="M482.49 3.17L517.95 3.17L517.95 38.63L482.49 38.63z" fill="rgba(12, 12, 12, 1)"></path><path d="M585.55 288.46 a10.49 10.49 0 1 0 20.98 0 a10.49 10.49 0 1 0 -20.98 0z" fill="rgba(12, 12, 12, 1)"></path><path d="M182.25 362.69 a28.54 28.54 0 1 0 57.08 0 a28.54 28.54 0 1 0 -57.08 0z" fill="rgba(192, 0, 255, 1)"></path><path d="M135.82 101.49a33.58 33.58 0 1 0 17.43-64.86z" fill="rgba(207, 224, 255, 1)"></path><path d="M253.71 173.6L273.4 173.6L273.4 193.29L253.71 193.29z" stroke="rgba(12, 12, 12, 1)"></path><path d="M386.35 365.59 a30.99 30.99 0 1 0 61.98 0 a30.99 30.99 0 1 0 -61.98 0z" fill="rgba(12, 12, 12, 1)"></path><path d="M138.85 346.84a22.76 22.76 0 1 0 41.8 18.02z" stroke="rgba(12, 12, 12, 1)"></path><path d="M430.21 33.93 a14.43 14.43 0 1 0 28.86 0 a14.43 14.43 0 1 0 -28.86 0z" fill="rgba(207, 224, 255, 1)"></path><path d="M383.12 370.57 a0.28 0.28 0 1 0 0.56 0 a0.28 0.28 0 1 0 -0.56 0z" stroke="rgba(207, 224, 255, 1)"></path><path d="M265.22 270.59L265.87 270.59L265.87 271.24L265.22 271.24z" fill="rgba(207, 224, 255, 1)"></path><path d="M724.82 41.63a8.36 8.36 0 1 0-1.44 16.66z" stroke="rgba(207, 224, 255, 1)"></path><path d="M169.25 381.23 a24.39 24.39 0 1 0 48.78 0 a24.39 24.39 0 1 0 -48.78 0z" stroke="rgba(192, 0, 255, 1)"></path><path d="M653.68 380.88L668.05 380.88L668.05 395.25L653.68 395.25z" stroke="rgba(192, 0, 255, 1)"></path><path d="M749.32 203.82L786.5 203.82L786.5 223.64L749.32 223.64z" stroke="rgba(192, 0, 255, 1)"></path><path d="M308.1 267.36L327.5 267.36L327.5 292.59L308.1 292.59z" stroke="rgba(192, 0, 255, 1)"></path><path d="M622.81 162.73L639.27 162.73L639.27 179.19L622.81 179.19z" fill="rgba(207, 224, 255, 1)"></path><path d="M219.21 112.63 a10.19 10.19 0 1 0 20.38 0 a10.19 10.19 0 1 0 -20.38 0z" stroke="rgba(12, 12, 12, 1)"></path><path d="M567.34 394.44L595.03 394.44L595.03 422.13L567.34 422.13z" stroke="rgba(192, 0, 255, 1)"></path><path d="M730.57 322.89L741.62 322.89L741.62 333.94L730.57 333.94z" fill="rgba(12, 12, 12, 1)"></path><path d="M468.88 136.52a4.58 4.58 0 1 0 9.1 1.12z" fill="rgba(207, 224, 255, 1)"></path></g><defs><mask id="SvgjsMask1005"><rect width="800" height="400" fill="#ffffff"></rect></mask></defs></svg>