<svg xmlns="http://www.w3.org/2000/svg" version="1.1" xmlns:xlink="http://www.w3.org/1999/xlink" xmlns:svgjs="http://svgjs.dev/svgjs" width="200" height="600" preserveAspectRatio="none" viewBox="0 0 200 600"><g mask="url(&quot;#SvgjsMask1043&quot;)" fill="none"><path d="M19.5 225.35L33.27 225.35L33.27 239.12L19.5 239.12z" fill="rgba(12, 12, 12, 1)"></path><path d="M141.21 524.85 a7.41 7.41 0 1 0 14.82 0 a7.41 7.41 0 1 0 -14.82 0z" stroke="rgba(12, 12, 12, 1)"></path><path d="M193.82 191.29a15.27 15.27 0 1 0 3.09-30.39z" stroke="rgba(12, 12, 12, 1)"></path><path d="M188.34 534.73L207.61 534.73L207.61 554L188.34 554z" fill="rgba(207, 224, 255, 1)"></path><path d="M39.36 396.96a4.77 4.77 0 1 0-9.28 2.22z" fill="rgba(192, 0, 255, 1)"></path><path d="M-1.59 363.93a11.4 11.4 0 1 0 13.33 18.5z" fill="rgba(12, 12, 12, 1)"></path><path d="M-12.07 67.75 a16.8 16.8 0 1 0 33.6 0 a16.8 16.8 0 1 0 -33.6 0z" fill="rgba(207, 224, 255, 1)"></path><path d="M4.01 29.31L21.77 29.31L21.77 47.07L4.01 47.07z" stroke="rgba(12, 12, 12, 1)"></path><path d="M78.95 70.9 a18.31 18.31 0 1 0 36.62 0 a18.31 18.31 0 1 0 -36.62 0z" stroke="rgba(207, 224, 255, 1)"></path><path d="M108.17 34.79a17.32 17.32 0 1 0 11.14-32.8z" fill="rgba(12, 12, 12, 1)"></path><path d="M18.33 239.31L32.48 239.31L32.48 253.46L18.33 253.46z" fill="rgba(207, 224, 255, 1)"></path><path d="M22.88 321.67 a0.25 0.25 0 1 0 0.5 0 a0.25 0.25 0 1 0 -0.5 0z" stroke="rgba(207, 224, 255, 1)"></path><path d="M72.69 374.67L82.76 374.67L82.76 382.3L72.69 382.3z" stroke="rgba(192, 0, 255, 1)"></path><path d="M79.1 464.33L94.44 464.33L94.44 479.67L79.1 479.67z" stroke="rgba(192, 0, 255, 1)"></path><path d="M80.12 188.28L86.33 188.28L86.33 194.49L80.12 194.49z" stroke="rgba(192, 0, 255, 1)"></path><path d="M152.31 71.28L156.02 71.28L156.02 83.44L152.31 83.44z" fill="rgba(12, 12, 12, 1)"></path><path d="M179.08 140.66L187.69 140.66L187.69 149.27L179.08 149.27z" stroke="rgba(207, 224, 255, 1)"></path><path d="M119.61 163.31L127.16 163.31L127.16 178.18L119.61 178.18z" fill="rgba(207, 224, 255, 1)"></path><path d="M108.79 409.25a15.49 15.49 0 1 0 26.43 16.16z" stroke="rgba(207, 224, 255, 1)"></path><path d="M127.04 149.96 a19.33 19.33 0 1 0 38.66 0 a19.33 19.33 0 1 0 -38.66 0z" fill="rgba(207, 224, 255, 1)"></path><path d="M84.9 360.35 a9.4 9.4 0 1 0 18.8 0 a9.4 9.4 0 1 0 -18.8 0z" stroke="rgba(12, 12, 12, 1)"></path><path d="M30.94 138.96L37.69 138.96L37.69 147.92L30.94 147.92z" stroke="rgba(12, 12, 12, 1)"></path><path d="M129.8 80.96 a1.31 1.31 0 1 0 2.62 0 a1.31 1.31 0 1 0 -2.62 0z" stroke="rgba(12, 12, 12, 1)"></path><path d="M35 165.65a9.28 9.28 0 1 0-15.91 9.56z" fill="rgba(207, 224, 255, 1)"></path><path d="M88.82 194.79 a4.7 4.7 0 1 0 9.4 0 a4.7 4.7 0 1 0 -9.4 0z" stroke="rgba(192, 0, 255, 1)"></path><path d="M38.48 345.32 a9.9 9.9 0 1 0 19.8 0 a9.9 9.9 0 1 0 -19.8 0z" fill="rgba(207, 224, 255, 1)"></path><path d="M94.55 240.28 a17.65 17.65 0 1 0 35.3 0 a17.65 17.65 0 1 0 -35.3 0z" fill="rgba(192, 0, 255, 1)"></path><path d="M133.05 49.28 a15.73 15.73 0 1 0 31.46 0 a15.73 15.73 0 1 0 -31.46 0z" stroke="rgba(12, 12, 12, 1)"></path><path d="M64.22 487.85L78.9 487.85L78.9 502.53L64.22 502.53z" fill="rgba(12, 12, 12, 1)"></path><path d="M122.8 270.2 a7.04 7.04 0 1 0 14.08 0 a7.04 7.04 0 1 0 -14.08 0z" fill="rgba(12, 12, 12, 1)"></path><path d="M166.8 3.96a4.77 4.77 0 1 0 8.96-3.26z" fill="rgba(192, 0, 255, 1)"></path><path d="M73.33 56.45L83.49 56.45L83.49 66.61L73.33 66.61z" fill="rgba(12, 12, 12, 1)"></path><path d="M54.9 36.6 a12.5 12.5 0 1 0 25 0 a12.5 12.5 0 1 0 -25 0z" stroke="rgba(207, 224, 255, 1)"></path><path d="M169.41 45.32 a4.43 4.43 0 1 0 8.86 0 a4.43 4.43 0 1 0 -8.86 0z" stroke="rgba(12, 12, 12, 1)"></path><path d="M59.66 44.88L60.24 44.88L60.24 45.46L59.66 45.46z" stroke="rgba(207, 224, 255, 1)"></path><path d="M86.86 345.52L91.63 345.52L91.63 348.78L86.86 348.78z" stroke="rgba(192, 0, 255, 1)"></path><path d="M52.11 179.04 a9.65 9.65 0 1 0 19.3 0 a9.65 9.65 0 1 0 -19.3 0z" stroke="rgba(207, 224, 255, 1)"></path><path d="M125.2 171.52L136.54 171.52L136.54 182.86L125.2 182.86z" fill="rgba(192, 0, 255, 1)"></path></g><defs><mask id="SvgjsMask1043"><rect width="200" height="600" fill="#ffffff"></rect></mask></defs></svg>